<?xml version="1.0" encoding="utf-8"?>
<svg xmlns="http://www.w3.org/2000/svg" viewBox="253.789 155.246 69.008 12.449" xmlns:bx="https://boxy-svg.com" width="69.008px" height="12.449px"><defs><linearGradient id="gradient-2" bx:pinned="true"><stop offset="1" style="stop-color: rgb(68, 68, 68);"/></linearGradient><bx:export><bx:file format="svg" path="download.svg" normalization="{&quot;removeForeignMetadata&quot;:true,&quot;removeAnimations&quot;:true,&quot;resetTransformOrigins&quot;:true,&quot;convertTextsToPaths&quot;:true}"/><bx:file format="svg" href="#object-0" excluded="true"/><bx:file format="svg" href="#object-1" path="Untitled 2.svg" excluded="true"/><bx:file format="svg" href="#object-2" path="Untitled 3.svg" excluded="true"/><bx:file format="svg" href="#object-3" path="Untitled 4.svg" excluded="true"/><bx:file format="svg" href="#object-4" path="Download.svg"/></bx:export></defs><g style="visibility: hidden;" transform="matrix(0.40906, 0, 0, 0.40906, 164.781189, 95.543228)"><title>MIT</title><rect x="222.507" y="147.075" width="76.162" height="28.586" style="stroke: rgb(0, 0, 0); filter: none; shape-rendering: geometricprecision; paint-order: fill; fill: rgb(68, 68, 68); stroke-width: 0px;" id="object-0"/><rect x="298.624" y="147.075" width="45.136" height="28.586" style="filter: none; shape-rendering: geometricprecision; paint-order: fill; stroke-width: 0px; stroke: rgb(255, 83, 83); fill: rgb(147, 137, 0);" id="object-1"/><path d="M 226.68 170.71 L 226.68 151.38 L 229.05 151.38 L 229.05 170.71 Z M 230.53 154.11 L 230.53 151.38 L 232.9 151.38 L 232.9 154.11 Z M 230.53 170.71 L 230.53 156.71 L 232.9 156.71 L 232.9 170.71 Z M 243.45 165.58 L 245.78 165.88 Q 245.4 168.3 243.83 169.66 Q 242.25 171.02 239.96 171.02 Q 237.08 171.02 235.34 169.15 Q 233.59 167.27 233.59 163.76 Q 233.59 161.49 234.34 159.79 Q 235.09 158.09 236.63 157.24 Q 238.16 156.39 239.97 156.39 Q 242.25 156.39 243.7 157.54 Q 245.15 158.7 245.56 160.82 L 243.25 161.18 Q 242.92 159.77 242.09 159.05 Q 241.25 158.34 240.06 158.34 Q 238.27 158.34 237.15 159.63 Q 236.03 160.91 236.03 163.69 Q 236.03 166.52 237.11 167.79 Q 238.19 169.07 239.93 169.07 Q 241.33 169.07 242.26 168.22 Q 243.2 167.36 243.45 165.58 Z M 255.19 166.2 L 257.64 166.5 Q 257.06 168.65 255.49 169.84 Q 253.92 171.02 251.48 171.02 Q 248.41 171.02 246.61 169.13 Q 244.81 167.24 244.81 163.83 Q 244.81 160.29 246.63 158.34 Q 248.45 156.39 251.35 156.39 Q 254.16 156.39 255.94 158.3 Q 257.72 160.21 257.72 163.68 Q 257.72 163.89 257.71 164.31 L 247.27 164.31 Q 247.4 166.62 248.57 167.85 Q 249.74 169.07 251.5 169.07 Q 252.8 169.07 253.73 168.39 Q 254.65 167.7 255.19 166.2 Z M 247.4 162.36 L 255.22 162.36 Q 255.06 160.6 254.32 159.71 Q 253.19 158.34 251.38 158.34 Q 249.74 158.34 248.63 159.44 Q 247.52 160.53 247.4 162.36 Z M 258.42 170.71 L 258.42 156.71 L 260.56 156.71 L 260.56 158.7 Q 262.1 156.39 265.02 156.39 Q 266.28 156.39 267.34 156.85 Q 268.4 157.3 268.93 158.04 Q 269.46 158.78 269.67 159.79 Q 269.8 160.45 269.8 162.1 L 269.8 170.71 L 267.43 170.71 L 267.43 162.19 Q 267.43 160.74 267.15 160.02 Q 266.87 159.3 266.17 158.88 Q 265.46 158.45 264.51 158.45 Q 263 158.45 261.9 159.41 Q 260.8 160.37 260.8 163.06 L 260.8 170.71 Z M 270.29 166.53 L 272.64 166.16 Q 272.84 167.57 273.74 168.32 Q 274.64 169.07 276.27 169.07 Q 277.9 169.07 278.69 168.41 Q 279.48 167.74 279.48 166.85 Q 279.48 166.04 278.78 165.58 Q 278.3 165.26 276.36 164.78 Q 273.75 164.12 272.74 163.63 Q 271.73 163.15 271.21 162.3 Q 270.69 161.45 270.69 160.42 Q 270.69 159.49 271.12 158.69 Q 271.55 157.89 272.28 157.37 Q 272.84 156.96 273.79 156.67 Q 274.75 156.39 275.84 156.39 Q 277.49 156.39 278.74 156.87 Q 279.98 157.34 280.58 158.15 Q 281.17 158.96 281.39 160.32 L 279.07 160.64 Q 278.92 159.55 278.16 158.95 Q 277.4 158.34 276.02 158.34 Q 274.38 158.34 273.68 158.88 Q 272.98 159.42 272.98 160.15 Q 272.98 160.61 273.27 160.98 Q 273.56 161.36 274.18 161.61 Q 274.54 161.74 276.28 162.22 Q 278.8 162.89 279.79 163.32 Q 280.79 163.75 281.35 164.56 Q 281.92 165.38 281.92 166.59 Q 281.92 167.78 281.23 168.83 Q 280.54 169.88 279.23 170.45 Q 277.93 171.02 276.28 171.02 Q 273.55 171.02 272.12 169.89 Q 270.69 168.76 270.29 166.53 Z M 292.12 166.2 L 294.57 166.5 Q 293.99 168.65 292.42 169.84 Q 290.85 171.02 288.41 171.02 Q 285.34 171.02 283.54 169.13 Q 281.74 167.24 281.74 163.83 Q 281.74 160.29 283.56 158.34 Q 285.38 156.39 288.28 156.39 Q 291.09 156.39 292.87 158.3 Q 294.65 160.21 294.65 163.68 Q 294.65 163.89 294.64 164.31 L 284.19 164.31 Q 284.33 166.62 285.5 167.85 Q 286.67 169.07 288.43 169.07 Q 289.73 169.07 290.65 168.39 Q 291.58 167.7 292.12 166.2 Z M 284.33 162.36 L 292.14 162.36 Q 291.99 160.6 291.25 159.71 Q 290.11 158.34 288.31 158.34 Q 286.67 158.34 285.56 159.44 Q 284.45 160.53 284.33 162.36 Z" style="fill: rgb(255, 255, 255); text-wrap-mode: nowrap;"/><path d="M 301.28 171.39 L 301.28 152.06 L 305.13 152.06 L 309.7 165.74 Q 310.33 167.66 310.62 168.6 Q 310.95 167.55 311.65 165.51 L 316.28 152.06 L 319.72 152.06 L 319.72 171.39 L 317.25 171.39 L 317.25 155.21 L 311.64 171.39 L 309.33 171.39 L 303.74 154.93 L 303.74 171.39 Z M 322.06 171.39 L 322.06 152.06 L 324.62 152.06 L 324.62 171.39 Z M 331.85 171.39 L 331.85 154.34 L 325.49 154.34 L 325.49 152.06 L 340.8 152.06 L 340.8 154.34 L 334.41 154.34 L 334.41 171.39 Z" style="fill: rgb(255, 255, 255); text-wrap-mode: nowrap;"/></g><g style="" transform="matrix(0.443037, 0, 0, 0.443037, 155.160812, 90.052963)" id="object-4"><title>Download</title><rect x="222.507" y="147.075" width="52.341" height="28.586" style="stroke: rgb(0, 0, 0); filter: none; shape-rendering: geometricprecision; paint-order: fill; fill: rgb(68, 68, 68); stroke-width: 0px;" id="rect-1"/><rect x="274.792" y="147.075" width="103.744" height="28.586" style="filter: none; shape-rendering: geometricprecision; paint-order: fill; stroke-width: 0px; stroke: rgb(255, 83, 83); fill: rgb(0, 147, 136);" id="rect-2"/><path d="M 228.92 170.71 L 226.72 170.71 L 226.72 151.38 L 229.09 151.38 L 229.09 158.28 Q 230.59 156.39 232.93 156.39 Q 234.22 156.39 235.37 156.91 Q 236.53 157.43 237.27 158.37 Q 238.01 159.32 238.44 160.65 Q 238.86 161.98 238.86 163.5 Q 238.86 167.1 237.08 169.06 Q 235.3 171.02 232.81 171.02 Q 230.33 171.02 228.92 168.95 Z M 228.89 163.6 Q 228.89 166.12 229.58 167.24 Q 230.7 169.07 232.61 169.07 Q 234.17 169.07 235.3 167.72 Q 236.43 166.37 236.43 163.69 Q 236.43 160.95 235.35 159.65 Q 234.26 158.34 232.72 158.34 Q 231.16 158.34 230.03 159.69 Q 228.89 161.04 228.89 163.6 Z M 248.71 170.71 L 248.71 168.65 Q 247.08 171.02 244.27 171.02 Q 243.03 171.02 241.96 170.55 Q 240.88 170.08 240.36 169.36 Q 239.84 168.64 239.63 167.6 Q 239.48 166.9 239.48 165.38 L 239.48 156.71 L 241.86 156.71 L 241.86 164.47 Q 241.86 166.33 242 166.98 Q 242.23 167.91 242.95 168.45 Q 243.68 168.98 244.74 168.98 Q 245.81 168.98 246.75 168.43 Q 247.68 167.89 248.07 166.94 Q 248.46 166 248.46 164.21 L 248.46 156.71 L 250.83 156.71 L 250.83 170.71 Z M 252.36 154.11 L 252.36 151.38 L 254.73 151.38 L 254.73 154.11 Z M 252.36 170.71 L 252.36 156.71 L 254.73 156.71 L 254.73 170.71 Z M 256.08 170.71 L 256.08 151.38 L 258.45 151.38 L 258.45 170.71 Z M 269.03 170.71 L 269.03 168.94 Q 267.7 171.02 265.11 171.02 Q 263.44 171.02 262.03 170.1 Q 260.63 169.18 259.86 167.52 Q 259.09 165.87 259.09 163.72 Q 259.09 161.62 259.79 159.92 Q 260.48 158.21 261.88 157.3 Q 263.28 156.39 265.01 156.39 Q 266.27 156.39 267.26 156.92 Q 268.25 157.46 268.87 158.32 L 268.87 151.38 L 271.23 151.38 L 271.23 170.71 Z M 261.53 163.72 Q 261.53 166.41 262.66 167.74 Q 263.79 169.07 265.34 169.07 Q 266.89 169.07 267.98 167.8 Q 269.07 166.53 269.07 163.92 Q 269.07 161.04 267.96 159.7 Q 266.85 158.35 265.23 158.35 Q 263.65 158.35 262.59 159.65 Q 261.53 160.94 261.53 163.72 Z" style="fill: rgb(255, 255, 255); text-wrap-mode: nowrap;"/><path d="M 288.4 171.39 L 288.4 169.62 Q 287.07 171.7 284.49 171.7 Q 282.81 171.7 281.41 170.78 Q 280 169.86 279.23 168.2 Q 278.46 166.55 278.46 164.4 Q 278.46 162.3 279.16 160.6 Q 279.86 158.89 281.26 157.98 Q 282.65 157.07 284.38 157.07 Q 285.65 157.07 286.64 157.6 Q 287.62 158.14 288.24 158.99 L 288.24 152.06 L 290.6 152.06 L 290.6 171.39 Z M 280.9 164.4 Q 280.9 167.09 282.03 168.42 Q 283.17 169.75 284.71 169.75 Q 286.27 169.75 287.35 168.48 Q 288.44 167.21 288.44 164.6 Q 288.44 161.72 287.33 160.38 Q 286.23 159.03 284.61 159.03 Q 283.02 159.03 281.96 160.32 Q 280.9 161.62 280.9 164.4 Z M 291.24 164.39 Q 291.24 160.5 293.4 158.62 Q 295.21 157.07 297.81 157.07 Q 300.69 157.07 302.53 158.96 Q 304.36 160.85 304.36 164.19 Q 304.36 166.89 303.55 168.44 Q 302.74 169.99 301.19 170.85 Q 299.64 171.7 297.81 171.7 Q 294.87 171.7 293.05 169.82 Q 291.24 167.93 291.24 164.39 Z M 293.68 164.39 Q 293.68 167.07 294.85 168.41 Q 296.03 169.75 297.81 169.75 Q 299.57 169.75 300.75 168.41 Q 301.92 167.06 301.92 164.31 Q 301.92 161.71 300.74 160.37 Q 299.56 159.03 297.81 159.03 Q 296.03 159.03 294.85 160.36 Q 293.68 161.7 293.68 164.39 Z M 307.51 171.39 L 303.23 157.39 L 305.68 157.39 L 307.91 165.47 L 308.74 168.47 Q 308.79 168.25 309.47 165.59 L 311.69 157.39 L 314.13 157.39 L 316.23 165.51 L 316.93 168.18 L 317.73 165.48 L 320.13 157.39 L 322.44 157.39 L 318.06 171.39 L 315.6 171.39 L 313.37 163 L 312.83 160.62 L 309.99 171.39 Z M 322.23 171.39 L 322.23 157.39 L 324.37 157.39 L 324.37 159.38 Q 325.91 157.07 328.83 157.07 Q 330.09 157.07 331.15 157.52 Q 332.21 157.98 332.74 158.72 Q 333.27 159.45 333.48 160.47 Q 333.61 161.13 333.61 162.78 L 333.61 171.39 L 331.24 171.39 L 331.24 162.87 Q 331.24 161.42 330.96 160.7 Q 330.69 159.98 329.98 159.55 Q 329.27 159.13 328.33 159.13 Q 326.81 159.13 325.71 160.09 Q 324.61 161.05 324.61 163.74 L 324.61 171.39 Z M 334.99 171.39 L 334.99 152.06 L 337.36 152.06 L 337.36 171.39 Z M 337.95 164.39 Q 337.95 160.5 340.11 158.62 Q 341.92 157.07 344.52 157.07 Q 347.4 157.07 349.24 158.96 Q 351.07 160.85 351.07 164.19 Q 351.07 166.89 350.26 168.44 Q 349.45 169.99 347.9 170.85 Q 346.35 171.7 344.52 171.7 Q 341.58 171.7 339.76 169.82 Q 337.95 167.93 337.95 164.39 Z M 340.39 164.39 Q 340.39 167.07 341.56 168.41 Q 342.74 169.75 344.52 169.75 Q 346.28 169.75 347.46 168.41 Q 348.63 167.06 348.63 164.31 Q 348.63 161.71 347.45 160.37 Q 346.27 159.03 344.52 159.03 Q 342.74 159.03 341.56 160.36 Q 340.39 161.7 340.39 164.39 Z M 360.78 169.66 Q 359.46 170.78 358.24 171.24 Q 357.02 171.7 355.62 171.7 Q 353.31 171.7 352.07 170.58 Q 350.84 169.45 350.84 167.69 Q 350.84 166.67 351.3 165.82 Q 351.77 164.97 352.53 164.45 Q 353.29 163.94 354.24 163.67 Q 354.94 163.49 356.35 163.32 Q 359.22 162.97 360.58 162.5 Q 360.59 162.01 360.59 161.88 Q 360.59 160.43 359.92 159.84 Q 359.01 159.03 357.22 159.03 Q 355.54 159.03 354.74 159.62 Q 353.95 160.21 353.56 161.7 L 351.24 161.38 Q 351.56 159.89 352.29 158.97 Q 353.01 158.06 354.38 157.56 Q 355.75 157.07 357.56 157.07 Q 359.35 157.07 360.47 157.49 Q 361.59 157.91 362.12 158.55 Q 362.65 159.19 362.86 160.17 Q 362.98 160.77 362.98 162.36 L 362.98 165.52 Q 362.98 168.83 363.13 169.71 Q 363.28 170.58 363.73 171.39 L 361.25 171.39 Q 360.88 170.65 360.78 169.66 Z M 360.58 164.36 Q 359.29 164.89 356.7 165.26 Q 355.24 165.47 354.63 165.73 Q 354.03 165.99 353.7 166.5 Q 353.37 167.01 353.37 167.63 Q 353.37 168.58 354.09 169.21 Q 354.8 169.84 356.19 169.84 Q 357.56 169.84 358.63 169.24 Q 359.69 168.64 360.2 167.6 Q 360.58 166.8 360.58 165.23 Z M 373.55 171.39 L 373.55 169.62 Q 372.22 171.7 369.63 171.7 Q 367.96 171.7 366.55 170.78 Q 365.15 169.86 364.38 168.2 Q 363.61 166.55 363.61 164.4 Q 363.61 162.3 364.3 160.6 Q 365 158.89 366.4 157.98 Q 367.8 157.07 369.53 157.07 Q 370.79 157.07 371.78 157.6 Q 372.77 158.14 373.39 158.99 L 373.39 152.06 L 375.75 152.06 L 375.75 171.39 Z M 366.05 164.4 Q 366.05 167.09 367.18 168.42 Q 368.31 169.75 369.86 169.75 Q 371.41 169.75 372.5 168.48 Q 373.59 167.21 373.59 164.6 Q 373.59 161.72 372.48 160.38 Q 371.37 159.03 369.75 159.03 Q 368.17 159.03 367.11 160.32 Q 366.05 161.62 366.05 164.4 Z" style="fill: rgb(255, 255, 255); text-wrap-mode: nowrap;"/></g></svg>