<?xml version="1.0" encoding="utf-8"?>
<svg xmlns="http://www.w3.org/2000/svg" viewBox="220.213 144.687 167.957 33.669" xmlns:bx="https://boxy-svg.com" width="167.957px" height="33.669px"><defs><linearGradient id="gradient-2" bx:pinned="true"><stop offset="1" style="stop-color: rgb(68, 68, 68);"/></linearGradient><bx:export><bx:file format="svg" path="download.svg" normalization="{&quot;removeForeignMetadata&quot;:true,&quot;removeAnimations&quot;:true,&quot;resetTransformOrigins&quot;:true,&quot;convertTextsToPaths&quot;:true}"/></bx:export></defs><rect x="222.507" y="147.075" width="56.103" height="28.586" style="stroke: rgb(0, 0, 0); filter: none; shape-rendering: geometricprecision; paint-order: fill; fill: rgb(68, 68, 68); stroke-width: 0px;"/><rect x="278.37" y="147.075" width="107.502" height="28.586" style="filter: none; shape-rendering: geometricprecision; paint-order: fill; stroke-width: 0px; stroke: rgb(255, 83, 83); fill: rgb(0, 147, 132);"/><path d="M 230.92 170.71 L 228.72 170.71 L 228.72 151.38 L 231.09 151.38 L 231.09 158.28 Q 232.59 156.39 234.93 156.39 Q 236.22 156.39 237.37 156.91 Q 238.53 157.43 239.27 158.37 Q 240.01 159.32 240.44 160.65 Q 240.86 161.98 240.86 163.5 Q 240.86 167.1 239.08 169.06 Q 237.3 171.02 234.81 171.02 Q 232.33 171.02 230.92 168.95 Z M 230.89 163.6 Q 230.89 166.12 231.58 167.24 Q 232.7 169.07 234.61 169.07 Q 236.17 169.07 237.3 167.72 Q 238.43 166.37 238.43 163.69 Q 238.43 160.95 237.35 159.65 Q 236.26 158.34 234.72 158.34 Q 233.16 158.34 232.03 159.69 Q 230.89 161.04 230.89 163.6 Z M 250.72 170.71 L 250.72 168.65 Q 249.09 171.02 246.28 171.02 Q 245.04 171.02 243.96 170.55 Q 242.89 170.08 242.37 169.36 Q 241.85 168.64 241.64 167.6 Q 241.49 166.9 241.49 165.38 L 241.49 156.71 L 243.86 156.71 L 243.86 164.47 Q 243.86 166.33 244.01 166.98 Q 244.23 167.91 244.96 168.45 Q 245.68 168.98 246.75 168.98 Q 247.82 168.98 248.76 168.43 Q 249.69 167.89 250.08 166.94 Q 250.47 166 250.47 164.21 L 250.47 156.71 L 252.84 156.71 L 252.84 170.71 Z M 254.37 154.11 L 254.37 151.38 L 256.74 151.38 L 256.74 154.11 Z M 254.37 170.71 L 254.37 156.71 L 256.74 156.71 L 256.74 170.71 Z M 258.1 170.71 L 258.1 151.38 L 260.48 151.38 L 260.48 170.71 Z M 271.04 170.71 L 271.04 168.94 Q 269.71 171.02 267.12 171.02 Q 265.45 171.02 264.04 170.1 Q 262.64 169.18 261.87 167.52 Q 261.1 165.87 261.1 163.72 Q 261.1 161.62 261.8 159.92 Q 262.49 158.21 263.89 157.3 Q 265.29 156.39 267.02 156.39 Q 268.28 156.39 269.27 156.92 Q 270.26 157.46 270.88 158.32 L 270.88 151.38 L 273.24 151.38 L 273.24 170.71 Z M 263.54 163.72 Q 263.54 166.41 264.67 167.74 Q 265.8 169.07 267.35 169.07 Q 268.9 169.07 269.99 167.8 Q 271.08 166.53 271.08 163.92 Q 271.08 161.04 269.97 159.7 Q 268.86 158.35 267.24 158.35 Q 265.66 158.35 264.6 159.65 Q 263.54 160.94 263.54 163.72 Z" style="fill: rgb(255, 255, 255); text-wrap-mode: nowrap;"/><path d="M 291.87 170.71 L 291.87 168.94 Q 290.54 171.03 287.96 171.03 Q 286.28 171.03 284.88 170.1 Q 283.48 169.18 282.71 167.53 Q 281.93 165.87 281.93 163.72 Q 281.93 161.63 282.63 159.92 Q 283.33 158.21 284.73 157.3 Q 286.13 156.39 287.85 156.39 Q 289.12 156.39 290.11 156.93 Q 291.1 157.46 291.72 158.32 L 291.72 151.38 L 294.08 151.38 L 294.08 170.71 Z M 284.37 163.72 Q 284.37 166.41 285.51 167.74 Q 286.64 169.07 288.18 169.07 Q 289.74 169.07 290.83 167.8 Q 291.91 166.53 291.91 163.92 Q 291.91 161.05 290.81 159.7 Q 289.7 158.36 288.08 158.36 Q 286.5 158.36 285.43 159.65 Q 284.37 160.94 284.37 163.72 Z M 294.72 163.71 Q 294.72 159.82 296.88 157.95 Q 298.69 156.39 301.29 156.39 Q 304.17 156.39 306.01 158.28 Q 307.84 160.18 307.84 163.51 Q 307.84 166.21 307.03 167.76 Q 306.22 169.31 304.67 170.17 Q 303.12 171.03 301.29 171.03 Q 298.35 171.03 296.53 169.14 Q 294.72 167.25 294.72 163.71 Z M 297.16 163.71 Q 297.16 166.4 298.33 167.74 Q 299.51 169.07 301.29 169.07 Q 303.05 169.07 304.23 167.73 Q 305.4 166.38 305.4 163.63 Q 305.4 161.03 304.22 159.69 Q 303.04 158.36 301.29 158.36 Q 299.51 158.36 298.33 159.69 Q 297.16 161.02 297.16 163.71 Z M 311 170.71 L 306.72 156.71 L 309.17 156.71 L 311.4 164.79 L 312.23 167.8 Q 312.28 167.57 312.95 164.91 L 315.18 156.71 L 317.62 156.71 L 319.72 164.83 L 320.42 167.51 L 321.22 164.8 L 323.62 156.71 L 325.93 156.71 L 321.55 170.71 L 319.09 170.71 L 316.86 162.32 L 316.32 159.94 L 313.48 170.71 Z M 325.72 170.71 L 325.72 156.71 L 327.85 156.71 L 327.85 158.7 Q 329.4 156.39 332.31 156.39 Q 333.58 156.39 334.64 156.85 Q 335.7 157.3 336.23 158.04 Q 336.75 158.78 336.96 159.79 Q 337.1 160.45 337.1 162.1 L 337.1 170.71 L 334.72 170.71 L 334.72 162.19 Q 334.72 160.74 334.45 160.02 Q 334.17 159.31 333.46 158.88 Q 332.76 158.45 331.81 158.45 Q 330.29 158.45 329.19 159.41 Q 328.09 160.37 328.09 163.06 L 328.09 170.71 Z M 338.48 170.71 L 338.48 151.38 L 340.85 151.38 L 340.85 170.71 Z M 341.45 163.71 Q 341.45 159.82 343.61 157.95 Q 345.42 156.39 348.01 156.39 Q 350.9 156.39 352.73 158.28 Q 354.57 160.18 354.57 163.51 Q 354.57 166.21 353.75 167.76 Q 352.94 169.31 351.39 170.17 Q 349.85 171.03 348.01 171.03 Q 345.07 171.03 343.26 169.14 Q 341.45 167.25 341.45 163.71 Z M 343.89 163.71 Q 343.89 166.4 345.06 167.74 Q 346.23 169.07 348.01 169.07 Q 349.78 169.07 350.95 167.73 Q 352.13 166.38 352.13 163.63 Q 352.13 161.03 350.95 159.69 Q 349.77 158.36 348.01 158.36 Q 346.23 158.36 345.06 159.69 Q 343.89 161.02 343.89 163.71 Z M 364.28 168.98 Q 362.96 170.1 361.74 170.56 Q 360.52 171.03 359.13 171.03 Q 356.82 171.03 355.58 169.9 Q 354.34 168.77 354.34 167.02 Q 354.34 165.99 354.81 165.14 Q 355.28 164.29 356.04 163.77 Q 356.79 163.26 357.74 163 Q 358.44 162.81 359.85 162.64 Q 362.73 162.3 364.08 161.82 Q 364.1 161.34 364.1 161.2 Q 364.1 159.75 363.42 159.16 Q 362.51 158.36 360.72 158.36 Q 359.05 158.36 358.25 158.94 Q 357.45 159.53 357.07 161.02 L 354.75 160.7 Q 355.07 159.21 355.79 158.3 Q 356.52 157.38 357.89 156.89 Q 359.26 156.39 361.06 156.39 Q 362.86 156.39 363.98 156.81 Q 365.1 157.24 365.63 157.87 Q 366.15 158.51 366.36 159.49 Q 366.48 160.1 366.48 161.68 L 366.48 164.84 Q 366.48 168.15 366.63 169.03 Q 366.79 169.9 367.23 170.71 L 364.76 170.71 Q 364.39 169.97 364.28 168.98 Z M 364.08 163.68 Q 362.79 164.21 360.21 164.58 Q 358.74 164.79 358.14 165.05 Q 357.53 165.32 357.2 165.82 Q 356.87 166.33 356.87 166.95 Q 356.87 167.9 357.59 168.53 Q 358.31 169.17 359.69 169.17 Q 361.06 169.17 362.13 168.57 Q 363.2 167.97 363.7 166.93 Q 364.08 166.12 364.08 164.55 Z M 377.04 170.71 L 377.04 168.94 Q 375.71 171.03 373.13 171.03 Q 371.45 171.03 370.05 170.1 Q 368.65 169.18 367.87 167.53 Q 367.1 165.87 367.1 163.72 Q 367.1 161.63 367.8 159.92 Q 368.5 158.21 369.9 157.3 Q 371.29 156.39 373.02 156.39 Q 374.29 156.39 375.28 156.93 Q 376.27 157.46 376.88 158.32 L 376.88 151.38 L 379.24 151.38 L 379.24 170.71 Z M 369.54 163.72 Q 369.54 166.41 370.68 167.74 Q 371.81 169.07 373.35 169.07 Q 374.91 169.07 375.99 167.8 Q 377.08 166.53 377.08 163.92 Q 377.08 161.05 375.98 159.7 Q 374.87 158.36 373.25 158.36 Q 371.66 158.36 370.6 159.65 Q 369.54 160.94 369.54 163.72 Z" style="fill: rgb(255, 255, 255); text-wrap-mode: nowrap;"/></svg>