<?xml version="1.0" encoding="utf-8"?>
<svg xmlns="http://www.w3.org/2000/svg" viewBox="266.513 157.692 33.26 7.753" xmlns:bx="https://boxy-svg.com" width="33.26px" height="7.753px"><defs><linearGradient id="gradient-2" bx:pinned="true"><stop offset="1" style="stop-color: rgb(68, 68, 68);"/></linearGradient><bx:export><bx:file format="svg" path="download.svg" normalization="{&quot;removeForeignMetadata&quot;:true,&quot;removeAnimations&quot;:true,&quot;resetTransformOrigins&quot;:true,&quot;convertTextsToPaths&quot;:true}"/><bx:file format="svg" href="#object-0" excluded="true"/><bx:file format="svg" href="#object-1" path="Untitled 2.svg" excluded="true"/><bx:file format="svg" href="#object-2" path="Untitled 3.svg" excluded="true"/><bx:file format="svg" href="#object-3" path="Untitled 4.svg" excluded="true"/></bx:export></defs><g style="" transform="matrix(0.274509, 0, 0, 0.274509, 205.410812, 117.302444)"><title>MIT</title><rect x="222.507" y="147.075" width="76.162" height="28.586" style="stroke: rgb(0, 0, 0); filter: none; shape-rendering: geometricprecision; paint-order: fill; fill: rgb(68, 68, 68); stroke-width: 0px;" id="object-0"/><rect x="298.624" y="147.075" width="45.136" height="28.586" style="filter: none; shape-rendering: geometricprecision; paint-order: fill; stroke-width: 0px; stroke: rgb(255, 83, 83); fill: rgb(147, 137, 0);" id="object-1"/><path d="M 226.68 170.71 L 226.68 151.38 L 229.05 151.38 L 229.05 170.71 Z M 230.53 154.11 L 230.53 151.38 L 232.9 151.38 L 232.9 154.11 Z M 230.53 170.71 L 230.53 156.71 L 232.9 156.71 L 232.9 170.71 Z M 243.44 165.58 L 245.77 165.88 Q 245.39 168.3 243.82 169.66 Q 242.24 171.02 239.95 171.02 Q 237.07 171.02 235.32 169.15 Q 233.58 167.27 233.58 163.76 Q 233.58 161.49 234.33 159.79 Q 235.08 158.09 236.62 157.24 Q 238.15 156.39 239.96 156.39 Q 242.24 156.39 243.69 157.54 Q 245.14 158.7 245.55 160.82 L 243.24 161.18 Q 242.91 159.77 242.07 159.05 Q 241.24 158.34 240.05 158.34 Q 238.26 158.34 237.14 159.63 Q 236.02 160.91 236.02 163.69 Q 236.02 166.52 237.1 167.79 Q 238.18 169.07 239.92 169.07 Q 241.32 169.07 242.25 168.22 Q 243.19 167.36 243.44 165.58 Z M 255.19 166.2 L 257.64 166.5 Q 257.06 168.65 255.49 169.84 Q 253.92 171.02 251.49 171.02 Q 248.41 171.02 246.61 169.13 Q 244.82 167.24 244.82 163.83 Q 244.82 160.29 246.63 158.34 Q 248.45 156.39 251.35 156.39 Q 254.16 156.39 255.94 158.3 Q 257.72 160.21 257.72 163.68 Q 257.72 163.89 257.71 164.31 L 247.27 164.31 Q 247.4 166.62 248.57 167.85 Q 249.75 169.07 251.5 169.07 Q 252.8 169.07 253.73 168.39 Q 254.65 167.7 255.19 166.2 Z M 247.4 162.36 L 255.22 162.36 Q 255.06 160.6 254.32 159.71 Q 253.19 158.34 251.38 158.34 Q 249.75 158.34 248.63 159.44 Q 247.52 160.53 247.4 162.36 Z M 258.42 170.71 L 258.42 156.71 L 260.55 156.71 L 260.55 158.7 Q 262.1 156.39 265.01 156.39 Q 266.28 156.39 267.34 156.85 Q 268.4 157.3 268.93 158.04 Q 269.45 158.78 269.66 159.79 Q 269.8 160.45 269.8 162.1 L 269.8 170.71 L 267.42 170.71 L 267.42 162.19 Q 267.42 160.74 267.15 160.02 Q 266.87 159.3 266.16 158.88 Q 265.46 158.45 264.51 158.45 Q 262.99 158.45 261.89 159.41 Q 260.79 160.37 260.79 163.06 L 260.79 170.71 Z M 270.28 166.53 L 272.63 166.16 Q 272.83 167.57 273.73 168.32 Q 274.63 169.07 276.25 169.07 Q 277.89 169.07 278.68 168.41 Q 279.47 167.74 279.47 166.85 Q 279.47 166.04 278.77 165.58 Q 278.28 165.26 276.35 164.78 Q 273.73 164.12 272.73 163.63 Q 271.72 163.15 271.2 162.3 Q 270.68 161.45 270.68 160.42 Q 270.68 159.49 271.1 158.69 Q 271.53 157.89 272.27 157.37 Q 272.83 156.96 273.78 156.67 Q 274.74 156.39 275.83 156.39 Q 277.48 156.39 278.72 156.87 Q 279.97 157.34 280.56 158.15 Q 281.16 158.96 281.38 160.32 L 279.06 160.64 Q 278.9 159.55 278.14 158.95 Q 277.39 158.34 276 158.34 Q 274.37 158.34 273.67 158.88 Q 272.97 159.42 272.97 160.15 Q 272.97 160.61 273.26 160.98 Q 273.55 161.36 274.17 161.61 Q 274.53 161.74 276.27 162.22 Q 278.78 162.89 279.78 163.32 Q 280.77 163.75 281.34 164.56 Q 281.91 165.38 281.91 166.59 Q 281.91 167.78 281.22 168.83 Q 280.52 169.88 279.22 170.45 Q 277.91 171.02 276.27 171.02 Q 273.54 171.02 272.11 169.89 Q 270.68 168.76 270.28 166.53 Z M 292.09 166.2 L 294.54 166.5 Q 293.96 168.65 292.39 169.84 Q 290.82 171.02 288.38 171.02 Q 285.31 171.02 283.51 169.13 Q 281.71 167.24 281.71 163.83 Q 281.71 160.29 283.53 158.34 Q 285.35 156.39 288.25 156.39 Q 291.06 156.39 292.84 158.3 Q 294.62 160.21 294.62 163.68 Q 294.62 163.89 294.61 164.31 L 284.17 164.31 Q 284.3 166.62 285.47 167.85 Q 286.64 169.07 288.4 169.07 Q 289.7 169.07 290.63 168.39 Q 291.55 167.7 292.09 166.2 Z M 284.3 162.36 L 292.12 162.36 Q 291.96 160.6 291.22 159.71 Q 290.08 158.34 288.28 158.34 Q 286.64 158.34 285.53 159.44 Q 284.42 160.53 284.3 162.36 Z" style="fill: rgb(255, 255, 255); text-wrap-mode: nowrap;"/><path d="M 301.28 171.39 L 301.28 152.06 L 305.13 152.06 L 309.7 165.74 Q 310.33 167.66 310.62 168.6 Q 310.95 167.55 311.65 165.51 L 316.28 152.06 L 319.72 152.06 L 319.72 171.39 L 317.25 171.39 L 317.25 155.21 L 311.64 171.39 L 309.33 171.39 L 303.74 154.93 L 303.74 171.39 Z M 322.06 171.39 L 322.06 152.06 L 324.62 152.06 L 324.62 171.39 Z M 331.84 171.39 L 331.84 154.34 L 325.47 154.34 L 325.47 152.06 L 340.79 152.06 L 340.79 154.34 L 334.4 154.34 L 334.4 171.39 Z" style="fill: rgb(255, 255, 255); text-wrap-mode: nowrap;"/></g><g style="pointer-events: none; visibility: hidden;" transform="matrix(0.297311, 0, 0, 0.297311, 198.954819, 113.618073)"><title>Download</title><rect x="222.507" y="147.075" width="76.162" height="28.586" style="stroke: rgb(0, 0, 0); filter: none; shape-rendering: geometricprecision; paint-order: fill; fill: rgb(68, 68, 68); stroke-width: 0px;" id="rect-1"/><rect x="298.624" y="147.075" width="45.136" height="28.586" style="filter: none; shape-rendering: geometricprecision; paint-order: fill; stroke-width: 0px; stroke: rgb(255, 83, 83); fill: rgb(147, 137, 0);" id="rect-2"/><path d="M 226.68 170.71 L 226.68 151.38 L 229.05 151.38 L 229.05 170.71 Z M 230.53 154.11 L 230.53 151.38 L 232.9 151.38 L 232.9 154.11 Z M 230.53 170.71 L 230.53 156.71 L 232.9 156.71 L 232.9 170.71 Z M 243.44 165.58 L 245.77 165.88 Q 245.39 168.3 243.81 169.66 Q 242.24 171.02 239.94 171.02 Q 237.07 171.02 235.32 169.15 Q 233.58 167.27 233.58 163.76 Q 233.58 161.49 234.33 159.79 Q 235.08 158.09 236.61 157.24 Q 238.15 156.39 239.96 156.39 Q 242.24 156.39 243.69 157.54 Q 245.14 158.7 245.55 160.82 L 243.24 161.18 Q 242.91 159.77 242.07 159.05 Q 241.24 158.34 240.05 158.34 Q 238.26 158.34 237.14 159.63 Q 236.01 160.91 236.01 163.69 Q 236.01 166.52 237.1 167.79 Q 238.18 169.07 239.92 169.07 Q 241.31 169.07 242.25 168.22 Q 243.19 167.36 243.44 165.58 Z M 255.19 166.2 L 257.64 166.5 Q 257.06 168.65 255.49 169.84 Q 253.92 171.02 251.48 171.02 Q 248.41 171.02 246.61 169.13 Q 244.81 167.24 244.81 163.83 Q 244.81 160.29 246.63 158.34 Q 248.45 156.39 251.35 156.39 Q 254.16 156.39 255.94 158.3 Q 257.72 160.21 257.72 163.68 Q 257.72 163.89 257.71 164.31 L 247.27 164.31 Q 247.4 166.62 248.57 167.85 Q 249.74 169.07 251.5 169.07 Q 252.8 169.07 253.73 168.39 Q 254.65 167.7 255.19 166.2 Z M 247.4 162.36 L 255.21 162.36 Q 255.06 160.6 254.32 159.71 Q 253.18 158.34 251.38 158.34 Q 249.74 158.34 248.63 159.44 Q 247.52 160.53 247.4 162.36 Z M 258.41 170.71 L 258.41 156.71 L 260.54 156.71 L 260.54 158.7 Q 262.08 156.39 265 156.39 Q 266.26 156.39 267.32 156.85 Q 268.39 157.3 268.91 158.04 Q 269.44 158.78 269.65 159.79 Q 269.78 160.45 269.78 162.1 L 269.78 170.71 L 267.41 170.71 L 267.41 162.19 Q 267.41 160.74 267.13 160.02 Q 266.86 159.3 266.15 158.88 Q 265.45 158.45 264.5 158.45 Q 262.98 158.45 261.88 159.41 Q 260.78 160.37 260.78 163.06 L 260.78 170.71 Z M 270.26 166.53 L 272.61 166.16 Q 272.8 167.57 273.71 168.32 Q 274.61 169.07 276.23 169.07 Q 277.87 169.07 278.66 168.41 Q 279.45 167.74 279.45 166.85 Q 279.45 166.04 278.75 165.58 Q 278.26 165.26 276.32 164.78 Q 273.71 164.12 272.7 163.63 Q 271.7 163.15 271.18 162.3 Q 270.65 161.45 270.65 160.42 Q 270.65 159.49 271.08 158.69 Q 271.51 157.89 272.25 157.37 Q 272.8 156.96 273.76 156.67 Q 274.71 156.39 275.81 156.39 Q 277.46 156.39 278.7 156.87 Q 279.95 157.34 280.54 158.15 Q 281.14 158.96 281.36 160.32 L 279.04 160.64 Q 278.88 159.55 278.12 158.95 Q 277.36 158.34 275.98 158.34 Q 274.35 158.34 273.65 158.88 Q 272.95 159.42 272.95 160.15 Q 272.95 160.61 273.24 160.98 Q 273.53 161.36 274.15 161.61 Q 274.5 161.74 276.24 162.22 Q 278.76 162.89 279.76 163.32 Q 280.75 163.75 281.32 164.56 Q 281.89 165.38 281.89 166.59 Q 281.89 167.78 281.19 168.83 Q 280.5 169.88 279.2 170.45 Q 277.89 171.02 276.24 171.02 Q 273.52 171.02 272.08 169.89 Q 270.65 168.76 270.26 166.53 Z M 292.1 166.2 L 294.55 166.5 Q 293.97 168.65 292.4 169.84 Q 290.83 171.02 288.39 171.02 Q 285.32 171.02 283.52 169.13 Q 281.72 167.24 281.72 163.83 Q 281.72 160.29 283.54 158.34 Q 285.36 156.39 288.26 156.39 Q 291.07 156.39 292.85 158.3 Q 294.63 160.21 294.63 163.68 Q 294.63 163.89 294.61 164.31 L 284.17 164.31 Q 284.3 166.62 285.48 167.85 Q 286.65 169.07 288.4 169.07 Q 289.71 169.07 290.63 168.39 Q 291.56 167.7 292.1 166.2 Z M 284.3 162.36 L 292.12 162.36 Q 291.96 160.6 291.23 159.71 Q 290.09 158.34 288.29 158.34 Q 286.65 158.34 285.54 159.44 Q 284.42 160.53 284.3 162.36 Z" style="fill: rgb(255, 255, 255); text-wrap-mode: nowrap;"/><path d="M 301.28 171.39 L 301.28 152.06 L 305.13 152.06 L 309.7 165.74 Q 310.33 167.66 310.62 168.6 Q 310.95 167.55 311.65 165.51 L 316.28 152.06 L 319.72 152.06 L 319.72 171.39 L 317.25 171.39 L 317.25 155.21 L 311.64 171.39 L 309.33 171.39 L 303.74 154.93 L 303.74 171.39 Z M 322.06 171.39 L 322.06 152.06 L 324.62 152.06 L 324.62 171.39 Z M 331.82 171.39 L 331.82 154.34 L 325.46 154.34 L 325.46 152.06 L 340.78 152.06 L 340.78 154.34 L 334.38 154.34 L 334.38 171.39 Z" style="fill: rgb(255, 255, 255); text-wrap-mode: nowrap;"/></g></svg>