<?xml version="1.0" encoding="utf-8"?>
<svg xmlns="http://www.w3.org/2000/svg" viewBox="220.213 144.687 125.536 33.669" xmlns:bx="https://boxy-svg.com" width="125.536px" height="33.669px"><defs><linearGradient id="gradient-2" bx:pinned="true"><stop offset="1" style="stop-color: rgb(68, 68, 68);"/></linearGradient><bx:export><bx:file format="svg" path="download.svg" normalization="{&quot;removeForeignMetadata&quot;:true,&quot;removeAnimations&quot;:true,&quot;resetTransformOrigins&quot;:true,&quot;convertTextsToPaths&quot;:true}"/><bx:file format="svg" href="#object-0" excluded="true"/><bx:file format="svg" href="#object-1" path="Untitled 2.svg" excluded="true"/><bx:file format="svg" href="#object-2" path="Untitled 3.svg" excluded="true"/><bx:file format="svg" href="#object-3" path="Untitled 4.svg" excluded="true"/></bx:export></defs><rect x="222.507" y="147.075" width="76.162" height="28.586" style="stroke: rgb(0, 0, 0); filter: none; shape-rendering: geometricprecision; paint-order: fill; fill: rgb(68, 68, 68); stroke-width: 0px;" id="object-0"/><rect x="298.624" y="147.075" width="45.136" height="28.586" style="filter: none; shape-rendering: geometricprecision; paint-order: fill; stroke-width: 0px; stroke: rgb(255, 83, 83); fill: rgb(147, 137, 0);" id="object-1"/><path d="M 226.68 170.71 L 226.68 151.38 L 229.05 151.38 L 229.05 170.71 Z M 230.54 154.11 L 230.54 151.38 L 232.91 151.38 L 232.91 154.11 Z M 230.54 170.71 L 230.54 156.71 L 232.91 156.71 L 232.91 170.71 Z M 243.46 165.58 L 245.79 165.88 Q 245.41 168.3 243.84 169.66 Q 242.26 171.02 239.97 171.02 Q 237.09 171.02 235.35 169.15 Q 233.6 167.27 233.6 163.76 Q 233.6 161.49 234.35 159.79 Q 235.1 158.09 236.64 157.24 Q 238.17 156.39 239.98 156.39 Q 242.26 156.39 243.71 157.54 Q 245.16 158.7 245.57 160.82 L 243.26 161.18 Q 242.93 159.77 242.1 159.05 Q 241.26 158.34 240.07 158.34 Q 238.28 158.34 237.16 159.63 Q 236.04 160.91 236.04 163.69 Q 236.04 166.52 237.12 167.79 Q 238.2 169.07 239.94 169.07 Q 241.34 169.07 242.27 168.22 Q 243.21 167.36 243.46 165.58 Z M 255.21 166.2 L 257.66 166.5 Q 257.08 168.65 255.51 169.84 Q 253.94 171.02 251.5 171.02 Q 248.43 171.02 246.63 169.13 Q 244.83 167.24 244.83 163.83 Q 244.83 160.29 246.65 158.34 Q 248.47 156.39 251.37 156.39 Q 254.18 156.39 255.96 158.3 Q 257.74 160.21 257.74 163.68 Q 257.74 163.89 257.73 164.31 L 247.28 164.31 Q 247.42 166.62 248.59 167.85 Q 249.76 169.07 251.52 169.07 Q 252.82 169.07 253.74 168.39 Q 254.67 167.7 255.21 166.2 Z M 247.42 162.36 L 255.23 162.36 Q 255.08 160.6 254.34 159.71 Q 253.2 158.34 251.4 158.34 Q 249.76 158.34 248.65 159.44 Q 247.53 160.53 247.42 162.36 Z M 258.44 170.71 L 258.44 156.71 L 260.57 156.71 L 260.57 158.7 Q 262.12 156.39 265.03 156.39 Q 266.29 156.39 267.36 156.85 Q 268.42 157.3 268.94 158.04 Q 269.47 158.78 269.68 159.79 Q 269.81 160.45 269.81 162.1 L 269.81 170.71 L 267.44 170.71 L 267.44 162.19 Q 267.44 160.74 267.17 160.02 Q 266.89 159.3 266.18 158.88 Q 265.48 158.45 264.53 158.45 Q 263.01 158.45 261.91 159.41 Q 260.81 160.37 260.81 163.06 L 260.81 170.71 Z M 270.3 166.53 L 272.65 166.16 Q 272.85 167.57 273.75 168.32 Q 274.65 169.07 276.27 169.07 Q 277.91 169.07 278.7 168.41 Q 279.49 167.74 279.49 166.85 Q 279.49 166.04 278.79 165.58 Q 278.31 165.26 276.37 164.78 Q 273.76 164.12 272.75 163.63 Q 271.74 163.15 271.22 162.3 Q 270.7 161.45 270.7 160.42 Q 270.7 159.49 271.13 158.69 Q 271.56 157.89 272.29 157.37 Q 272.85 156.96 273.8 156.67 Q 274.76 156.39 275.85 156.39 Q 277.5 156.39 278.75 156.87 Q 279.99 157.34 280.59 158.15 Q 281.18 158.96 281.4 160.32 L 279.08 160.64 Q 278.92 159.55 278.17 158.95 Q 277.41 158.34 276.02 158.34 Q 274.39 158.34 273.69 158.88 Q 272.99 159.42 272.99 160.15 Q 272.99 160.61 273.28 160.98 Q 273.57 161.36 274.19 161.61 Q 274.55 161.74 276.29 162.22 Q 278.81 162.89 279.8 163.32 Q 280.8 163.75 281.36 164.56 Q 281.93 165.38 281.93 166.59 Q 281.93 167.78 281.24 168.83 Q 280.55 169.88 279.24 170.45 Q 277.94 171.02 276.29 171.02 Q 273.56 171.02 272.13 169.89 Q 270.7 168.76 270.3 166.53 Z M 292.13 166.2 L 294.59 166.5 Q 294.01 168.65 292.44 169.84 Q 290.87 171.02 288.43 171.02 Q 285.36 171.02 283.56 169.13 Q 281.76 167.24 281.76 163.83 Q 281.76 160.29 283.58 158.34 Q 285.4 156.39 288.3 156.39 Q 291.11 156.39 292.89 158.3 Q 294.67 160.21 294.67 163.68 Q 294.67 163.89 294.65 164.31 L 284.21 164.31 Q 284.34 166.62 285.52 167.85 Q 286.69 169.07 288.44 169.07 Q 289.75 169.07 290.67 168.39 Q 291.59 167.7 292.13 166.2 Z M 284.34 162.36 L 292.16 162.36 Q 292 160.6 291.26 159.71 Q 290.13 158.34 288.32 158.34 Q 286.69 158.34 285.58 159.44 Q 284.46 160.53 284.34 162.36 Z" style="fill: rgb(255, 255, 255); text-wrap-mode: nowrap;"/><path d="M 301.28 171.39 L 301.28 152.06 L 305.13 152.06 L 309.7 165.74 Q 310.33 167.66 310.62 168.6 Q 310.95 167.55 311.65 165.51 L 316.28 152.06 L 319.72 152.06 L 319.72 171.39 L 317.25 171.39 L 317.25 155.21 L 311.64 171.39 L 309.33 171.39 L 303.74 154.93 L 303.74 171.39 Z M 322.07 171.39 L 322.07 152.06 L 324.63 152.06 L 324.63 171.39 Z M 331.86 171.39 L 331.86 154.34 L 325.49 154.34 L 325.49 152.06 L 340.81 152.06 L 340.81 154.34 L 334.42 154.34 L 334.42 171.39 Z" style="fill: rgb(255, 255, 255); text-wrap-mode: nowrap;"/></svg>